<?xml version="1.0" standalone="no"?>
<!DOCTYPE svg PUBLIC "-//W3C//DTD SVG 20010904//EN"
 "http://www.w3.org/TR/2001/REC-SVG-20010904/DTD/svg10.dtd">
<svg version="1.0" xmlns="http://www.w3.org/2000/svg"
 width="1073.000000pt" height="684.000000pt" viewBox="0 0 1073.000000 684.000000"
 preserveAspectRatio="xMidYMid meet">

<g transform="translate(0.000000,684.000000) scale(0.100000,-0.100000)"
fill="#000000" stroke="none">
<path d="M1995 5388 l-1477 -1443 119 -3 c65 -2 213 0 330 3 l212 7 1148 1119
c631 615 1150 1119 1153 1119 3 0 519 -501 1145 -1112 626 -612 1142 -1113
1146 -1113 3 0 75 74 159 164 l152 164 -133 132 c-362 359 -2462 2405 -2469
2405 -5 0 -673 -649 -1485 -1442z"/>
<path d="M1590 5930 c0 -390 3 -710 8 -710 4 0 178 168 387 374 l380 373 3
336 3 337 -391 0 -390 0 0 -710z"/>
<path d="M5887 3853 l-1247 -1218 253 -6 c197 -5 259 -3 284 7 28 11 472 440
1801 1738 l163 160 187 -185 c156 -154 1188 -1163 1628 -1592 72 -69 133 -121
150 -125 16 -5 142 -6 280 -3 l251 6 -1244 1215 c-684 668 -1247 1216 -1251
1218 -4 1 -569 -546 -1255 -1215z"/>
<path d="M3010 4590 l0 -240 235 0 235 0 0 240 0 240 -235 0 -235 0 0 -240z"/>
<path d="M3570 4585 l0 -245 230 0 230 0 0 245 0 245 -230 0 -230 0 0 -245z"/>
<path d="M1640 4253 c-102 -97 -190 -188 -197 -202 -9 -20 -12 -346 -13 -1383
l0 -1358 200 0 200 0 0 1560 c0 858 -1 1560 -2 1560 -2 -1 -86 -80 -188 -177z"/>
<path d="M3020 4010 l0 -240 230 0 230 0 0 240 0 240 -230 0 -230 0 0 -240z"/>
<path d="M3570 4010 l0 -240 235 0 235 0 0 240 0 240 -235 0 -235 0 0 -240z"/>
<path d="M6710 3430 l0 -200 195 0 195 0 0 200 0 200 -195 0 -195 0 0 -200z"/>
<path d="M7180 3430 l0 -200 195 0 195 0 0 200 0 200 -195 0 -195 0 0 -200z"/>
<path d="M3503 3595 c-14 -10 -33 -46 -50 -98 -26 -79 -27 -89 -25 -272 2
-223 20 -672 28 -732 l6 -43 -57 0 c-55 0 -93 -12 -107 -34 -4 -6 -8 -202 -8
-436 0 -369 2 -428 16 -448 15 -22 19 -22 229 -22 172 0 216 3 228 14 12 12
15 91 21 433 5 280 4 427 -3 445 -14 36 -39 48 -105 48 -49 0 -56 3 -56 19 0
11 9 201 21 423 11 222 18 431 15 465 -13 127 -70 253 -115 253 -9 0 -26 -7
-38 -15z m-66 -1987 c-1 -46 -3 -11 -3 77 0 88 2 125 3 83 2 -42 2 -114 0
-160z m160 0 c-1 -46 -3 -11 -3 77 0 88 2 125 3 83 2 -42 2 -114 0 -160z m60
0 c-1 -46 -3 -11 -3 77 0 88 2 125 3 83 2 -42 2 -114 0 -160z m50 0 c-1 -46
-3 -11 -3 77 0 88 2 125 3 83 2 -42 2 -114 0 -160z"/>
<path d="M6710 2945 l0 -205 195 0 195 0 0 205 0 205 -195 0 -195 0 0 -205z"/>
<path d="M7180 2945 l0 -205 195 0 195 0 0 205 0 205 -195 0 -195 0 0 -205z"/>
<path d="M5400 1935 l0 -805 45 0 44 0 3 133 3 132 175 0 175 0 3 -132 3 -133
39 0 40 0 0 805 0 805 -40 0 -40 0 0 -85 0 -85 -185 0 -185 0 0 85 0 85 -40 0
-40 0 0 -805z m448 408 l3 -133 -181 0 -180 0 0 128 c0 71 3 132 7 136 4 3 84
5 177 4 l171 -3 3 -132z m0 -360 l3 -133 -181 0 -180 0 0 128 c0 71 3 132 7
136 4 3 84 5 177 4 l171 -3 3 -132z m0 -360 l3 -133 -181 0 -180 0 0 128 c0
71 3 132 7 136 4 3 84 5 177 4 l171 -3 3 -132z"/>
<path d="M8578 2393 l-3 -108 -80 -3 c-43 -2 -84 -7 -90 -12 -7 -6 -10 -61
-10 -155 1 -154 2 -159 50 -170 11 -3 200 -49 420 -103 l400 -97 0 -355 0
-355 -347 -3 -348 -2 0 -145 0 -145 350 0 350 0 0 -159 c0 -148 1 -160 23
-192 59 -88 198 -91 261 -6 18 25 22 47 26 180 l5 152 425 3 c361 3 444 1 552
-14 104 -15 129 -15 142 -5 23 19 24 362 1 384 -28 29 -195 16 -195 -15 0 -4
-208 -7 -462 -6 l-463 3 0 340 0 339 428 106 c274 67 431 111 437 120 11 16
14 269 4 294 -5 13 -23 16 -95 16 l-89 0 0 110 0 110 -845 0 -844 0 -3 -107z
m2 -263 l0 -110 845 0 845 0 0 110 0 110 70 0 70 0 0 -115 c0 -108 -1 -115
-22 -129 -13 -8 -198 -58 -413 -110 l-390 -95 -60 31 c-77 40 -123 40 -202 -1
l-59 -31 -396 98 c-219 55 -404 105 -413 112 -12 10 -15 35 -15 120 0 58 3
110 7 113 3 4 35 7 70 7 l63 0 0 -110z"/>
<path d="M1010 1850 c-118 -42 -258 -113 -348 -177 -157 -112 -303 -282 -365
-425 l-32 -73 0 -210 0 -210 39 -110 c52 -150 57 -222 23 -380 -14 -66 -28
-145 -32 -176 l-7 -55 74 -14 c133 -24 363 -13 383 20 3 5 6 49 6 98 0 65 -5
101 -19 138 -11 27 -29 73 -41 101 -51 129 -47 250 9 303 40 37 84 47 255 60
83 6 160 13 173 16 22 4 22 5 22 204 l0 200 -32 0 c-67 0 -293 41 -317 57 -59
38 -66 85 -25 165 36 70 100 137 294 301 91 77 166 145 168 151 3 14 -81 46
-118 46 -14 0 -63 -14 -110 -30z"/>
<path d="M7789 1641 l-29 -29 0 -241 c0 -132 4 -251 10 -265 13 -36 62 -46
223 -46 154 0 183 -8 234 -61 48 -51 55 -81 60 -239 6 -177 8 -180 102 -180
36 0 71 4 77 8 32 21 34 52 34 537 0 485 -2 516 -34 537 -6 4 -154 8 -329 8
l-319 0 -29 -29z m583 -173 c-2 -84 -7 -187 -11 -228 l-6 -75 -135 0 -135 0 3
170 c1 94 5 196 8 228 l6 57 137 0 137 0 -4 -152z"/>
<path d="M8150 1395 l0 -165 75 0 75 0 -2 163 -3 162 -72 3 -73 3 0 -166z"/>
<path d="M8570 1405 l0 -180 20 25 c11 14 20 28 20 33 0 17 19 5 38 -24 l19
-31 19 31 c10 17 21 31 24 31 3 0 14 -14 24 -31 l19 -32 18 24 c10 13 19 27
19 32 0 15 16 5 37 -24 l21 -31 16 31 c21 39 27 39 50 0 l19 -31 19 31 20 31
36 -30 c20 -16 40 -26 44 -22 5 5 7 84 6 175 l-3 167 -39 -26 -39 -27 -21 26
-21 26 -20 -29 c-11 -17 -22 -30 -25 -30 -3 0 -14 13 -25 30 l-21 29 -19 -30
c-11 -16 -22 -29 -25 -29 -3 0 -14 14 -24 31 l-19 31 -19 -31 c-11 -17 -23
-31 -27 -31 -4 0 -15 14 -25 31 l-19 31 -19 -31 c-19 -29 -38 -41 -38 -23 0 4
-9 18 -20 32 l-20 25 0 -180z"/>
<path d="M7310 1560 c-181 -23 -312 -129 -371 -301 -26 -78 -36 -230 -20 -310
34 -163 155 -304 291 -339 25 -6 53 -13 62 -16 13 -4 18 3 24 30 4 26 11 36
25 36 18 0 19 11 19 207 0 197 -1 208 -21 229 -21 23 -21 23 -2 56 39 67 131
99 239 84 24 -3 64 -3 89 1 l45 6 0 157 0 157 -92 7 c-108 7 -212 6 -288 -4z"/>
<path d="M4275 1174 c-240 -32 -596 -40 -1180 -25 -633 15 -1685 25 -1777 17
l-78 -8 0 -198 c0 -196 0 -198 23 -205 52 -16 884 -17 1307 -1 1067 41 1262
40 1655 -5 99 -12 205 -22 235 -23 l55 -1 25 50 c23 45 25 62 25 170 0 121
-18 209 -48 233 -24 20 -65 20 -242 -4z"/>
<path d="M7630 1172 c-22 -18 -22 -22 -23 -266 -1 -310 -11 -291 164 -291 115
0 122 1 140 24 11 13 22 41 25 62 l7 39 140 0 140 0 -5 84 c-5 91 -18 123 -65
153 -23 15 -52 18 -183 19 -133 0 -161 3 -195 20 -44 21 -74 69 -82 134 -6 45
-26 52 -63 22z"/>
<path d="M10 950 l0 -190 95 0 95 0 0 190 0 190 -95 0 -95 0 0 -190z"/>
<path d="M4660 870 l0 -40 1090 0 1090 0 0 40 0 40 -1090 0 -1090 0 0 -40z"/>
</g>
</svg>
