<?xml version="1.0" standalone="no"?>
<!DOCTYPE svg PUBLIC "-//W3C//DTD SVG 20010904//EN"
 "http://www.w3.org/TR/2001/REC-SVG-20010904/DTD/svg10.dtd">
<svg version="1.0" xmlns="http://www.w3.org/2000/svg"
 width="1024.000000pt" height="1024.000000pt" viewBox="0 0 1024.000000 1024.000000"
 preserveAspectRatio="xMidYMid meet">

<g transform="translate(0.000000,1024.000000) scale(0.100000,-0.100000)"
fill="#000000" stroke="none">
<path d="M4160 8193 l-955 -765 -3 446 -2 446 -640 0 -640 0 0 -960 0 -960
-315 -251 c-173 -138 -315 -254 -315 -257 0 -10 213 -222 223 -222 4 0 817
648 1807 1440 l1800 1440 1800 -1440 c990 -792 1803 -1440 1808 -1440 4 0 57
49 117 110 109 109 109 110 90 129 -24 22 -3814 3051 -3818 3050 -1 0 -432
-345 -957 -766z m-1280 -610 l-1 -418 -295 -235 c-162 -129 -306 -243 -319
-253 l-25 -19 0 671 0 671 320 0 320 0 0 -417z"/>
<path d="M3518 6719 l-1598 -1279 0 -2080 0 -2080 1120 0 1120 0 0 1280 0
1280 960 0 960 0 0 -1280 0 -1280 1120 0 1120 0 0 2080 0 2080 -1600 1280
c-880 704 -1601 1280 -1602 1279 -2 0 -722 -576 -1600 -1280z m3045 -283
l1437 -1150 0 -1843 0 -1843 -800 0 -800 0 0 1280 0 1280 -1280 0 -1280 0 0
-1280 0 -1280 -800 0 -800 0 0 1843 0 1843 1438 1151 c790 633 1440 1151 1443
1150 3 -1 652 -519 1442 -1151z"/>
</g>
</svg>
