<?xml version="1.0" standalone="no"?>
<!DOCTYPE svg PUBLIC "-//W3C//DTD SVG 20010904//EN"
 "http://www.w3.org/TR/2001/REC-SVG-20010904/DTD/svg10.dtd">
<svg version="1.0" xmlns="http://www.w3.org/2000/svg"
 width="512.000000pt" height="512.000000pt" viewBox="0 0 512.000000 512.000000"
 preserveAspectRatio="xMidYMid meet">

<g transform="translate(0.000000,512.000000) scale(0.100000,-0.100000)"
fill="#000000" stroke="none">
<path d="M2513 5013 c-299 -298 -508 -653 -566 -961 l-14 -70 75 -58 c201
-158 388 -416 516 -713 l44 -103 6 73 c4 41 16 227 27 414 11 187 22 342 25
344 2 2 4 -12 4 -33 0 -20 9 -184 21 -364 16 -248 20 -388 16 -579 -3 -139 -2
-253 1 -253 27 0 241 195 321 294 210 259 313 507 328 792 22 420 -199 860
-639 1272 l-57 54 -108 -109z"/>
<path d="M909 4048 c-69 -3 -171 -13 -225 -22 -100 -16 -317 -66 -365 -85
l-27 -10 14 -64 c39 -187 104 -368 205 -572 90 -183 178 -312 291 -425 l78
-79 68 30 c169 77 322 115 508 128 109 7 288 1 389 -14 28 -4 48 -5 45 -3 -3
3 -126 87 -275 188 -148 100 -274 187 -280 192 -13 13 162 -74 598 -299 329
-169 532 -261 545 -248 8 8 -43 174 -93 301 -127 325 -309 583 -530 749 -233
175 -552 254 -946 233z"/>
<path d="M3820 3865 c-95 -16 -147 -30 -237 -63 l-72 -26 -6 -66 c-25 -268
-131 -537 -296 -747 -27 -35 -46 -63 -42 -63 5 0 168 63 363 140 195 76 355
138 357 137 1 -2 -222 -124 -495 -272 -451 -244 -631 -348 -632 -367 0 -3 35
-18 78 -32 443 -145 862 -158 1182 -36 395 150 725 554 921 1128 l28 83 -22 8
c-12 5 -47 19 -77 31 -146 59 -370 117 -553 144 -129 19 -389 20 -497 1z"/>
<path d="M1390 2763 c-68 -8 -206 -42 -273 -68 -335 -126 -615 -412 -836 -854
-51 -102 -121 -272 -121 -294 0 -22 172 -96 350 -152 259 -82 564 -118 782
-92 l67 8 6 47 c10 78 35 183 61 260 47 140 178 373 277 490 21 24 37 46 37
48 0 2 -104 -33 -232 -77 -127 -43 -233 -78 -235 -76 -1 2 135 71 304 154 288
141 313 156 388 223 88 79 216 181 284 226 l43 28 -68 24 c-101 34 -294 79
-415 97 -98 14 -329 18 -419 8z"/>
<path d="M2318 2432 c-321 -226 -588 -536 -697 -812 -64 -163 -75 -225 -76
-435 0 -216 10 -278 78 -485 64 -196 237 -517 364 -678 l19 -23 104 70 c288
191 535 440 670 676 53 94 106 216 129 299 l18 65 -44 53 c-185 222 -309 501
-378 851 -13 65 -25 120 -27 122 -2 2 -59 -217 -127 -486 -68 -269 -125 -488
-127 -487 -1 2 36 298 81 658 46 360 83 655 82 656 -1 1 -32 -19 -69 -44z"/>
<path d="M2643 2344 c3 -21 9 -70 12 -109 9 -93 41 -259 71 -366 175 -629 559
-953 1238 -1045 119 -16 445 -22 535 -9 l54 7 -6 147 c-16 398 -119 755 -294
1020 -64 97 -231 271 -260 271 -10 0 -59 -9 -108 -19 -240 -52 -530 -49 -786
8 l-39 9 79 -87 c44 -47 112 -117 151 -156 39 -38 144 -146 233 -239 l162
-170 -456 366 c-374 299 -467 369 -510 383 -30 10 -60 20 -68 23 -10 4 -12 -4
-8 -34z"/>
</g>
</svg>
