<?xml version="1.0" standalone="no"?>
<!DOCTYPE svg PUBLIC "-//W3C//DTD SVG 20010904//EN"
 "http://www.w3.org/TR/2001/REC-SVG-20010904/DTD/svg10.dtd">
<svg version="1.0" xmlns="http://www.w3.org/2000/svg"
 width="980.000000pt" height="896.000000pt" viewBox="0 0 980.000000 896.000000"
 preserveAspectRatio="xMidYMid meet">

<g transform="translate(0.000000,896.000000) scale(0.100000,-0.100000)"
fill="#000000" stroke="none">
<path d="M4294 8911 c-33 -22 -648 -460 -1369 -974 -1193 -850 -1312 -937
-1332 -977 l-23 -44 0 -678 0 -678 -23 5 c-63 13 -477 56 -508 52 -33 -4 -927
-393 -977 -425 -13 -8 -32 -32 -43 -53 -19 -38 -19 -66 -17 -1372 l3 -1334 25
-32 c35 -46 956 -552 1015 -558 22 -3 148 12 279 31 132 20 241 36 243 36 2 0
3 -69 3 -152 0 -179 13 -221 77 -261 21 -13 636 -351 1367 -752 1013 -555
1339 -729 1372 -733 37 -4 125 27 706 248 364 139 886 337 1158 440 272 104
1166 443 1985 755 890 338 1500 575 1514 588 54 50 51 -39 51 1704 0 1604 0
1617 -20 1659 -15 29 -33 48 -63 63 -23 12 -301 101 -617 197 -316 97 -626
191 -687 211 l-113 35 0 537 c0 498 -1 539 -18 571 -16 32 -53 53 -408 230
-214 108 -659 329 -989 492 -330 163 -1014 502 -1519 752 -1043 518 -966 488
-1072 417z m931 -1029 c237 -102 436 -190 443 -195 9 -7 12 -135 12 -576 0
-592 0 -591 -42 -591 -31 0 -890 268 -904 282 -11 11 -14 132 -14 633 -1 578
0 620 17 632 9 7 26 10 37 7 12 -4 215 -90 451 -192z m-1211 66 c14 -20 16
-94 16 -609 0 -544 -1 -588 -17 -607 -23 -26 -579 -272 -615 -272 -17 0 -31 8
-38 19 -6 13 -10 206 -10 559 l0 539 23 20 c17 16 489 313 572 361 31 17 52
14 69 -10z m2665 -694 c174 -75 322 -143 329 -152 9 -12 12 -125 12 -486 0
-423 -2 -471 -17 -488 -9 -10 -23 -18 -31 -18 -31 0 -638 191 -652 206 -13 13
-15 85 -15 530 0 499 1 516 19 530 11 8 24 14 29 14 5 0 151 -61 326 -136z
m-3720 42 c8 -9 10 -156 9 -527 l-3 -513 -223 -99 c-216 -95 -224 -98 -248
-82 l-24 16 2 476 3 476 215 134 c118 73 224 133 236 133 12 0 27 -6 33 -14z
m4773 -496 c128 -56 241 -110 251 -122 16 -18 17 -54 17 -422 0 -347 -2 -405
-16 -424 -8 -12 -23 -22 -33 -22 -10 0 -120 32 -245 70 -126 39 -230 70 -231
70 -2 0 -11 7 -19 16 -14 14 -16 69 -16 456 0 397 2 443 17 460 9 10 22 18 29
18 7 0 117 -45 246 -100z m-5528 24 c14 -14 16 -68 16 -448 0 -409 -1 -434
-19 -450 -31 -28 -331 -154 -353 -148 -11 2 -24 16 -29 29 -5 13 -9 199 -9
413 0 354 2 390 18 409 25 31 313 210 339 211 12 0 29 -7 37 -16z m2998 -1204
c242 -45 449 -85 459 -91 18 -9 19 -33 19 -578 0 -506 -2 -570 -16 -582 -13
-11 -93 -8 -467 13 -438 25 -452 27 -469 48 -17 21 -18 60 -18 624 0 528 2
604 16 624 8 12 20 22 25 22 6 0 208 -36 451 -80z m-1181 3 c5 -14 9 -275 9
-607 0 -476 -2 -586 -14 -601 -12 -16 -49 -21 -320 -43 -295 -24 -307 -24
-326 -7 -20 18 -20 31 -20 560 0 417 3 545 13 558 14 20 600 177 630 169 10
-3 23 -16 28 -29z m2669 -274 c217 -39 299 -58 312 -71 17 -17 18 -51 18 -493
0 -461 -1 -476 -20 -495 -17 -17 -29 -19 -77 -14 -32 3 -177 14 -323 24 -248
17 -266 20 -282 40 -17 21 -18 60 -18 526 0 499 0 504 21 525 15 15 29 20 48
16 14 -3 159 -29 321 -58z m-3739 21 c18 -10 19 -27 19 -524 0 -423 -2 -516
-14 -525 -7 -6 -110 -20 -227 -30 -184 -16 -217 -16 -236 -4 l-23 13 0 475 c0
361 3 476 12 482 13 8 412 120 436 122 7 1 22 -4 33 -9z m4787 -211 c183 -33
230 -45 245 -61 16 -19 17 -54 17 -423 0 -379 -1 -404 -19 -426 l-18 -23 -244
13 c-194 10 -248 16 -261 28 -17 15 -18 50 -18 455 0 284 4 446 10 459 14 26
28 25 288 -22z m-5536 4 c17 -15 18 -42 18 -448 0 -345 -3 -435 -13 -450 -12
-15 -41 -20 -187 -33 l-174 -14 -18 22 c-17 21 -18 52 -18 420 0 364 1 400 18
418 12 14 63 33 167 60 174 46 182 48 207 25z m6513 -183 c86 -16 163 -35 171
-41 12 -10 14 -73 12 -377 -3 -318 -5 -366 -19 -375 -10 -6 -80 -7 -193 -2
-155 6 -181 10 -197 26 -18 18 -19 40 -19 390 0 236 4 377 10 390 15 26 47 25
235 -11z m588 -110 c94 -15 136 -25 145 -37 9 -13 12 -97 12 -338 0 -301 -1
-323 -19 -339 -16 -15 -33 -16 -167 -7 -134 9 -151 12 -166 32 -16 19 -18 51
-18 343 0 275 2 325 16 344 19 27 31 27 197 2z m-8383 -49 c6 -13 10 -138 10
-340 0 -307 -1 -321 -19 -331 -11 -5 -80 -15 -152 -21 -184 -16 -169 -43 -169
320 0 231 3 291 14 306 9 13 54 31 128 51 137 38 173 41 188 15z m-508 -128
c17 -15 18 -37 18 -289 0 -310 3 -299 -82 -308 -132 -13 -148 -13 -168 1 -19
14 -20 24 -20 277 0 217 3 266 14 275 15 13 166 58 200 60 11 0 28 -6 38 -16z
m-82 -999 c105 -10 100 6 100 -310 0 -341 9 -324 -154 -279 -48 13 -94 29
-102 36 -11 9 -14 62 -14 280 0 299 -1 294 70 284 19 -2 64 -7 100 -11z m531
-53 c28 -5 55 -15 60 -22 5 -8 8 -160 6 -338 -2 -378 5 -356 -104 -328 -110
29 -197 56 -213 67 -13 8 -15 55 -18 301 -4 364 -11 345 124 335 52 -4 117
-11 145 -15z m8579 -21 c19 -19 20 -33 20 -338 0 -239 -3 -322 -12 -334 -13
-16 -241 -68 -299 -68 -59 0 -59 -1 -59 365 0 302 2 335 18 353 17 21 45 24
290 41 12 0 31 -8 42 -19z m-558 -37 c17 -15 18 -40 18 -378 0 -278 -3 -365
-12 -373 -15 -11 -320 -72 -364 -72 -17 0 -35 5 -42 12 -9 9 -12 110 -12 394
0 342 2 383 16 395 11 9 69 18 168 25 213 16 208 16 228 -3z m-6822 -58 c105
-11 137 -18 147 -31 10 -14 13 -117 13 -449 0 -528 17 -484 -163 -435 -171 46
-228 66 -238 82 -5 7 -9 194 -9 415 0 452 -3 433 73 433 23 0 103 -7 177 -15z
m5704 -27 c14 -20 16 -136 16 -1053 0 -810 -3 -1035 -12 -1047 -14 -18 -770
-308 -803 -308 -12 0 -26 5 -33 12 -19 19 -17 2341 2 2357 12 10 596 57 753
60 53 1 64 -2 77 -21z m-5025 -38 c113 -12 211 -26 218 -32 10 -8 13 -112 13
-524 0 -511 0 -513 -21 -525 -17 -9 -59 0 -227 46 -114 31 -217 63 -229 71
l-23 14 0 473 c0 355 3 476 12 485 16 16 17 15 257 -8z m3655 -52 c14 -20 16
-157 16 -1268 0 -981 -3 -1250 -12 -1263 -10 -12 -853 -340 -1150 -447 -33
-12 -39 -12 -58 5 -20 18 -20 22 -20 1455 0 1248 2 1439 15 1450 9 8 198 25
557 50 674 47 633 46 652 18z m-2669 -44 c241 -23 272 -28 288 -46 16 -19 17
-63 17 -610 l0 -589 -25 -24 c-13 -14 -31 -25 -39 -25 -69 0 -562 154 -598
187 -17 15 -18 46 -18 555 0 353 4 546 10 559 14 25 36 25 365 -7z"/>
</g>
</svg>
